Coordinates
version=1
nRows=14
nColumns=40
inDegrees=yes

Units are S.I. units (second, meters, Newtons, ...)
If the header above contains a line with 'inDegrees', this indicates whether rotational values are in degrees (yes) or radians (no).

endheader
time	pelvis_tilt	pelvis_list	pelvis_rotation	pelvis_tx	pelvis_ty	pelvis_tz	hip_flexion_r	hip_adduction_r	hip_rotation_r	knee_angle_r	knee_angle_r_beta	ankle_angle_r	subtalar_angle_r	mtp_angle_r	hip_flexion_l	hip_adduction_l	hip_rotation_l	knee_angle_l	knee_angle_l_beta	ankle_angle_l	subtalar_angle_l	mtp_angle_l	lumbar_extension	lumbar_bending	lumbar_rotation	arm_flex_r	arm_add_r	arm_rot_r	elbow_flex_r	pro_sup_r	wrist_flex_r	wrist_dev_r	arm_flex_l	arm_add_l	arm_rot_l	elbow_flex_l	pro_sup_l	wrist_flex_l	wrist_dev_l
      6.75000000	     45.04680375	     -0.13885656	   -174.05553971	      0.40211700	      0.70183141	     -0.58949841	     95.51792974	    -16.98355867	      5.58029895	     57.82514944	      1.00923925	     11.20444700	      0.00000000	      0.00000000	     93.77704736	     -6.32006611	      3.50975978	     54.88311565	      0.95789107	      9.37988300	      0.00000000	      0.00000000	    -40.10604396	     -0.85292037	      0.84617361	     62.93705953	    -24.11377264	     47.55223985	     25.60094414	     66.07087131	      0.00000000	      0.00000000	     69.75145531	      0.05285371	     14.35116807	     13.83407079	     20.38839260	      0.00000000	      0.00000000
      6.75500000	     45.11040391	     -0.11811100	   -174.03543242	      0.40185021	      0.70282943	     -0.58943235	     95.38085283	    -16.99419036	      5.52438102	     57.57848650	      1.00493417	     11.12943012	      0.00000000	      0.00000000	     93.64290492	     -6.30841510	      3.44948720	     54.57688184	      0.95254628	      9.27608385	      0.00000000	      0.00000000	    -40.18840506	     -0.81592917	      0.87540672	     62.84734561	    -24.08568419	     47.10261507	     25.64929833	     65.52594432	      0.00000000	      0.00000000	     69.84071730	      0.06604426	     14.43201755	     13.85229505	     20.97978211	      0.00000000	      0.00000000
      6.76000000	     45.14859244	     -0.03006468	   -173.91123352	      0.40156117	      0.70399038	     -0.58913170	     95.20824829	    -17.16291663	      5.29630321	     57.36097164	      1.00113782	     11.10346235	      0.00000000	      0.00000000	     93.42425053	     -6.14923713	      3.54138219	     54.14240788	      0.94496328	      9.23000551	      0.00000000	      0.00000000	    -40.32669755	     -0.63479903	      0.75744368	     62.75687835	    -24.01756825	     46.55089343	     26.03712147	     64.91192858	      0.00000000	      0.00000000	     69.60241267	     -0.18878454	     14.43636072	     14.35097354	     21.65815132	      0.00000000	      0.00000000
      6.76500000	     45.26631168	     -0.16327077	   -174.01120276	      0.40145129	      0.70490345	     -0.58939685	     95.14259536	    -16.98733988	      5.52771973	     57.00341908	      0.99489735	     10.90747757	      0.00000000	      0.00000000	     93.35306257	     -6.29801480	      3.26690046	     53.95683194	      0.94172437	      9.07610029	      0.00000000	      0.00000000	    -40.35424595	     -0.84663480	      0.78102004	     62.79462758	    -23.97535191	     46.57410143	     25.84307184	     64.75344902	      0.00000000	      0.00000000	     70.01114852	     -0.00632389	     14.59881806	     13.61152883	     21.96709509	      0.00000000	      0.00000000
      6.77000000	     45.41455048	     -0.03608355	   -173.92856914	      0.40134868	      0.70587073	     -0.58911600	     95.03637145	    -17.07121385	      5.36738734	     56.69273240	      0.98947484	     10.89761507	      0.00000000	      0.00000000	     93.29673292	     -6.16760371	      3.40942373	     53.56594823	      0.93490216	      8.97912042	      0.00000000	      0.00000000	    -40.33322864	     -0.66184196	      0.76774242	     62.76643182	    -23.87522350	     46.18446980	     25.86300554	     64.24465598	      0.00000000	      0.00000000	     69.87399610	     -0.10018679	     14.64269042	     13.89297353	     22.53652655	      0.00000000	      0.00000000
      6.77500000	     45.50596514	     -0.03699560	   -173.89400620	      0.40121291	      0.70688586	     -0.58907580	     94.96080244	    -17.11109772	      5.30217371	     56.46594217	      0.98551661	     10.73957967	      0.00000000	      0.00000000	     93.18234814	     -6.15098051	      3.31237797	     53.25369033	      0.92945224	      8.79823104	      0.00000000	      0.00000000	    -40.37918624	     -0.64186086	      0.77188534	     62.78544353	    -23.82975712	     46.08585255	     25.78063328	     63.92940108	      0.00000000	      0.00000000	     70.03714979	     -0.00583816	     14.71403563	     13.73786970	     22.94520856	      0.00000000	      0.00000000
      6.78000000	     45.61671116	      0.04564005	   -173.79596605	      0.40111383	      0.70804931	     -0.58881307	     94.83918452	    -17.23620916	      5.10964167	     56.15519991	      0.98009313	     10.70245823	      0.00000000	      0.00000000	     93.01512408	     -6.00871613	      3.42237005	     52.74867787	      0.92063810	      8.74436805	      0.00000000	      0.00000000	    -40.43774464	     -0.49104778	      0.66348381	     62.74058469	    -23.75213925	     45.67967384	     26.05435513	     63.43550845	      0.00000000	      0.00000000	     69.84196007	     -0.25595722	     14.71199258	     14.12973080	     23.49501454	      0.00000000	      0.00000000
      6.78500000	     45.73120535	     -0.00468523	   -173.81017684	      0.40108176	      0.70906088	     -0.58884040	     94.76865304	    -17.19557904	      5.19824301	     55.83922178	      0.97457827	     10.43004480	      0.00000000	      0.00000000	     92.95825076	     -6.04559370	      3.25380944	     52.51292791	      0.91652349	      8.49022539	      0.00000000	      0.00000000	    -40.46125761	     -0.56244265	      0.67656196	     62.85678696	    -23.72413464	     45.89285158	     25.80270048	     63.28618360	      0.00000000	      0.00000000	     70.16220676	     -0.08044820	     14.82144416	     13.56786414	     23.75402905	      0.00000000	      0.00000000
      6.79000000	     45.83573356	      0.09891253	   -173.68871558	      0.40093589	      0.71036962	     -0.58856771	     94.60304629	    -17.34921670	      4.95559740	     55.48523805	      0.96840009	     10.40217014	      0.00000000	      0.00000000	     92.76072771	     -5.88370099	      3.36311345	     51.95321612	      0.90675468	      8.44274727	      0.00000000	      0.00000000	    -40.52537140	     -0.37888192	      0.63854859	     62.79744710	    -23.72068829	     45.48324560	     26.06164518	     62.78944014	      0.00000000	      0.00000000	     69.97284254	     -0.21067674	     14.79643243	     14.19072006	     24.31561529	      0.00000000	      0.00000000
      6.79500000	     45.94830270	     -0.05264302	   -173.91370023	      0.40090121	      0.71144864	     -0.58911219	     94.51861651	    -17.03249422	      5.20428409	     55.08675374	      0.96144523	     10.13137020	      0.00000000	      0.00000000	     92.67091243	     -6.19026630	      3.04097271	     51.74317405	      0.90308875	      8.23391374	      0.00000000	      0.00000000	    -40.56668449	     -0.65145499	      0.66837612	     63.78683499	    -24.33035353	     49.70548614	     25.77500766	     64.70370477	      0.00000000	      0.00000000	     70.30825402	      0.00021918	     13.68223397	     13.77295709	     23.27197628	      0.00000000	      0.00000000
      6.80000000	     46.05950638	      0.05810423	   -173.74544639	      0.40084890	      0.71266600	     -0.58869469	     94.39736722	    -17.27217791	      4.91641780	     54.78526156	      0.95618320	     10.06586621	      0.00000000	      0.00000000	     92.51701532	     -5.97030633	      3.18831858	     51.21908800	      0.89394173	      8.10887516	      0.00000000	      0.00000000	    -40.61449406	     -0.42868245	      0.54529421	     63.69483450	    -24.21845599	     49.05368835	     25.98638529	     64.07104423	      0.00000000	      0.00000000	     70.09597027	     -0.22489919	     13.70486196	     14.21613868	     23.84732446	      0.00000000	      0.00000000
      6.80500000	     46.21704717	      0.14952994	   -173.63089782	      0.40086827	      0.71379724	     -0.58840348	     94.31388988	    -17.42035185	      4.72930400	     54.42001662	      0.94980847	      9.93462313	      0.00000000	      0.00000000	     92.41993300	     -5.81545419	      3.29329986	     50.73634809	      0.88551632	      7.94269820	      0.00000000	      0.00000000	    -40.59058879	     -0.27932430	      0.49368008	     63.63436001	    -24.08414390	     48.50363205	     25.96778745	     63.50640735	      0.00000000	      0.00000000	     70.05713629	     -0.28499768	     13.78681207	     14.34781666	     24.34101578	      0.00000000	      0.00000000
      6.81000000	     46.38740999	      0.17778459	   -173.55779007	      0.40098335	      0.71489519	     -0.58820044	     94.25071285	    -17.49386283	      4.67016092	     54.03590391	      0.94310444	      9.74990510	      0.00000000	      0.00000000	     92.35142540	     -5.69714291	      3.33124922	     50.29321873	      0.87778226	      7.71740639	      0.00000000	      0.00000000	    -40.54953239	     -0.21080518	      0.47901151	     63.58884622	    -23.98161420	     48.02372142	     25.86792942	     63.00164632	      0.00000000	      0.00000000	     70.14874711	     -0.20551310	     13.87847599	     14.33801556	     24.77941934	      0.00000000	      0.00000000
      6.81500000	     46.49353356	      0.01480472	   -173.62689773	      0.40100201	      0.71589352	     -0.58845164	     94.24249288	    -17.39958048	      4.85733511	     53.74267326	      0.93798660	      9.32349918	      0.00000000	      0.00000000	     92.27162724	     -5.81310889	      3.01959149	     50.09078797	      0.87424917	      7.40600890	      0.00000000	      0.00000000	    -40.59024640	     -0.44167314	      0.42873858	     63.62669323	    -23.92229426	     48.02639745	     25.77018039	     62.82721893	      0.00000000	      0.00000000	     70.52634486	     -0.08707576	     13.91592715	     13.60881573	     24.90837989	      0.00000000	      0.00000000
